<mxfile host="65bd71144e" scale="4" border="0">
    <diagram id="zcjRhHv8CTLXdRoGBuVu" name="Page-1">
        <mxGraphModel dx="521" dy="506" grid="1" gridSize="10" guides="1" tooltips="1" connect="1" arrows="1" fold="1" page="1" pageScale="1" pageWidth="583" pageHeight="827" math="1" shadow="0">
            <root>
                <mxCell id="0"/>
                <mxCell id="1" parent="0"/>
                <mxCell id="2" value="" style="whiteSpace=wrap;html=1;fillColor=#d5e8d4;strokeColor=#82b366;sketch=1;" parent="1" vertex="1">
                    <mxGeometry x="80" y="80" width="440" height="20" as="geometry"/>
                </mxCell>
                <mxCell id="3" value="&lt;font face=&quot;Courier New&quot;&gt;0&lt;/font&gt;" style="text;html=1;align=center;verticalAlign=middle;resizable=0;points=[];autosize=1;strokeColor=none;fillColor=none;sketch=1;" parent="1" vertex="1">
                    <mxGeometry x="80" y="60" width="20" height="20" as="geometry"/>
                </mxCell>
                <mxCell id="4" value="n" style="text;html=1;align=center;verticalAlign=middle;resizable=0;points=[];autosize=1;strokeColor=none;fillColor=none;fontFamily=Courier New;sketch=1;" parent="1" vertex="1">
                    <mxGeometry x="520" y="60" width="20" height="20" as="geometry"/>
                </mxCell>
                <mxCell id="6" value="&lt;font face=&quot;Courier New&quot; style=&quot;font-size: 14px;&quot;&gt;g&lt;/font&gt;" style="text;html=1;align=center;verticalAlign=middle;resizable=0;points=[];autosize=1;strokeColor=none;fillColor=none;sketch=1;fontStyle=1;fontSize=14;" parent="1" vertex="1">
                    <mxGeometry x="180" y="60" width="20" height="20" as="geometry"/>
                </mxCell>
                <mxCell id="7" value="&lt;font face=&quot;Courier New&quot; style=&quot;font-size: 14px;&quot;&gt;d&lt;/font&gt;" style="text;html=1;align=center;verticalAlign=middle;resizable=0;points=[];autosize=1;strokeColor=none;fillColor=none;sketch=1;fontStyle=1;fontSize=14;" parent="1" vertex="1">
                    <mxGeometry x="360" y="60" width="20" height="20" as="geometry"/>
                </mxCell>
                <mxCell id="8" value="" style="whiteSpace=wrap;html=1;fontFamily=Courier New;sketch=1;fillColor=#f8cecc;strokeColor=#b85450;rotation=90;" parent="1" vertex="1">
                    <mxGeometry x="270.5" y="-7.5" width="23.5" height="195" as="geometry"/>
                </mxCell>
                <mxCell id="9" value="$$valeurs &amp;lt; elem$$" style="text;html=1;align=center;verticalAlign=middle;resizable=0;points=[];autosize=1;strokeColor=none;fillColor=none;fontFamily=Helvetica;sketch=1;" parent="1" vertex="1">
                    <mxGeometry x="70" y="80" width="120" height="20" as="geometry"/>
                </mxCell>
                <mxCell id="10" value="$$elem &amp;lt; valeurs$$" style="text;html=1;align=center;verticalAlign=middle;resizable=0;points=[];autosize=1;strokeColor=none;fillColor=none;fontFamily=Helvetica;sketch=1;" parent="1" vertex="1">
                    <mxGeometry x="380" y="80" width="120" height="20" as="geometry"/>
                </mxCell>
                <mxCell id="21" style="edgeStyle=orthogonalEdgeStyle;html=1;curved=1;fillColor=#f8cecc;strokeColor=#b85450;" parent="1" source="20" target="8" edge="1">
                    <mxGeometry relative="1" as="geometry"/>
                </mxCell>
                <mxCell id="20" value="portion du tableau Ã  explorer" style="text;html=1;align=center;verticalAlign=middle;resizable=0;points=[];autosize=1;strokeColor=#b85450;fillColor=#f8cecc;fontFamily=Helvetica;" parent="1" vertex="1">
                    <mxGeometry x="150" y="20" width="170" height="20" as="geometry"/>
                </mxCell>
            </root>
        </mxGraphModel>
    </diagram>
</mxfile>